<?xml version="1.0" encoding="UTF-8"?>
<!DOCTYPE svg PUBLIC "-//W3C//DTD SVG 1.1//EN" "http://www.w3.org/Graphics/SVG/1.1/DTD/svg11.dtd">
<!-- Creator: CorelDRAW 2021 (64-Bit) -->
<svg xmlns="http://www.w3.org/2000/svg" xml:space="preserve" width="2124.49mm" height="1260.72mm" version="1.1" style="shape-rendering:geometricPrecision; text-rendering:geometricPrecision; image-rendering:optimizeQuality; fill-rule:evenodd; clip-rule:evenodd"
viewBox="0 0 32171.64 19091.37"
 xmlns:xlink="http://www.w3.org/1999/xlink"
 xmlns:xodm="http://www.corel.com/coreldraw/odm/2003">
 <defs>
  <style type="text/css">
   <![CDATA[
    .fil0 {fill:#F7E082}
    .fil1 {fill:#F3BA31}
    .fil2 {fill:#2E4165;fill-rule:nonzero}
   ]]>
  </style>
 </defs>
 <g id="Capa_x0020_1">
  <metadata id="CorelCorpID_0Corel-Layer"/>
  <g id="_1931282204800">
   <g>
    <path class="fil0" d="M7963.39 11352.25c2415.7,-103.87 5556.06,143.14 6377.7,-91.62 2762.33,-749.76 3173.72,-4576.42 753.11,-6127.44 -839.78,-538.08 -1861.88,-551.25 -2690.74,-625.41 -2036.63,-182.16 -1570.3,-2292.55 -171.17,-2302.07l1703.3 -11.67c-90.25,-294.64 -843.32,-1316.09 -1100.48,-1650.82 -131.7,-171.36 -290.06,-353.45 -384.57,-537.63 -3478.15,5.95 -4603.96,3815.35 -2742.07,5707.27 1117.62,1135.66 2186.34,985.1 3587.84,1149.51 1555.34,182.42 1666.95,2249.54 20.42,2281.99l-3880.92 76.53 -1472.41 2131.36z"/>
    <path class="fil1" d="M20665.02 6470.49c2913.86,-700.15 3181.33,-6463.56 -1601.11,-6470.49l-5960.01 0.29 1563.69 2167.45 4395.17 40.8c1818.84,16.87 2202.98,2303.54 -0.1,2303.54l-2688.69 -0.03 4962.68 6847.09 2871.6 0 -3543.23 -4888.65z"/>
   </g>
   <g>
    <path class="fil2" d="M1412.33 16880.57c-274.21,0 -539.31,-37.14 -795.36,-111.46 -256.05,-74.37 -461.7,-171 -616.97,-289.94l272.54 -604.58c148.69,109.03 325.41,196.6 530.25,262.67 204.85,66.07 409.65,99.11 614.49,99.11 227.97,0 396.44,-33.89 505.47,-101.59 109.03,-67.74 163.52,-157.75 163.52,-270.11 0,-82.57 -32.18,-151.12 -96.63,-205.66 -64.41,-54.49 -147.02,-98.25 -247.75,-131.29 -100.78,-33.04 -237.07,-69.41 -408.83,-109.03 -264.29,-62.78 -480.72,-125.57 -649.2,-188.35 -168.47,-62.74 -313.01,-163.52 -433.62,-302.29 -120.56,-138.73 -180.87,-323.74 -180.87,-555 0,-201.56 54.49,-384.09 163.52,-547.61 109.03,-163.52 273.4,-293.18 493.12,-389 219.67,-95.82 488.11,-143.73 805.28,-143.73 221.34,0 437.72,26.46 649.2,79.28 211.43,52.87 396.44,128.86 555,227.97l-247.75 609.53c-320.5,-181.68 -640.95,-272.54 -961.4,-272.54 -224.68,0 -390.67,36.33 -498.03,109.03 -107.4,72.7 -161.08,168.47 -161.08,287.42 0,118.94 61.97,207.32 185.83,265.15 123.9,57.78 313.06,114.79 567.44,170.95 264.29,62.78 480.68,125.52 649.2,188.3 168.47,62.78 313.02,161.89 433.58,297.33 120.61,135.48 180.91,318.83 180.91,550.08 0,198.22 -55.35,379.09 -166.04,542.65 -110.65,163.52 -276.69,293.18 -498.03,389 -221.34,95.82 -490.59,143.69 -807.75,143.69zm4306.4 -802.8l-1610.6 0 -307.25 743.35 -822.63 0 1546.15 -3468.9 792.93 0 1551.1 3468.9 -842.46 0 -307.25 -743.35zm-252.76 -609.53l-550.04 -1328.09 -550.09 1328.09 1100.13 0zm4945.68 -2116.02l0 3468.9 -659.07 0 -1729.54 -2106.15 0 2106.15 -792.88 0 0 -3468.9 664.07 0 1724.54 2106.1 0 -2106.1 792.88 0zm4435.26 3468.9l-669.03 -966.36 -39.66 0 -698.73 0 0 966.36 -802.8 0 0 -3468.9 1501.53 0c307.25,0 574.06,51.2 800.36,153.6 226.3,102.4 400.59,247.8 522.82,436.1 122.23,188.3 183.35,411.31 183.35,668.98 0,257.71 -61.97,479.87 -185.83,666.55 -123.9,186.64 -299.81,329.56 -527.78,428.67l778.01 1115 -862.24 0zm-14.87 -2210.22c0,-194.88 -62.78,-344.38 -188.3,-448.45 -125.57,-104.07 -308.91,-156.12 -550.09,-156.12l-654.15 0 0 1209.2 654.15 0c241.17,0 424.52,-52.87 550.09,-158.6 125.52,-105.74 188.3,-254.38 188.3,-446.02zm3127 2269.66c-360.11,0 -684.71,-77.61 -973.79,-232.88 -289.08,-155.27 -515.38,-369.22 -678.9,-641.76 -163.56,-272.54 -245.32,-578.98 -245.32,-919.26 0,-340.28 81.76,-646.72 245.32,-919.26 163.52,-272.59 389.81,-486.49 678.9,-641.76 289.08,-155.27 613.68,-232.92 973.79,-232.92 360.11,0 683.86,77.66 971.27,232.92 287.46,155.27 513.76,369.17 678.94,641.76 165.18,272.54 247.75,578.98 247.75,919.26 0,340.28 -82.57,646.72 -247.75,919.26 -165.18,272.54 -391.48,486.49 -678.94,641.76 -287.41,155.27 -611.16,232.88 -971.27,232.88zm0 -683.86c204.8,0 389.81,-47.05 555,-141.25 165.18,-94.15 294.9,-225.44 389.05,-393.96 94.15,-168.47 141.21,-360.11 141.21,-574.83 0,-214.76 -47.05,-406.36 -141.21,-574.87 -94.15,-168.47 -223.86,-299.81 -389.05,-393.96 -165.18,-94.15 -350.2,-141.21 -555,-141.21 -204.85,0 -389.86,47.05 -555.04,141.21 -165.18,94.15 -294.85,225.49 -389,393.96 -94.15,168.52 -141.25,360.11 -141.25,574.87 0,214.72 47.1,406.36 141.25,574.83 94.15,168.52 223.82,299.81 389,393.96 165.18,94.2 350.2,141.25 555.04,141.25zm5659.24 624.41l-4.96 -2081.36 -1020.85 1714.66 -361.74 0 -1015.89 -1670.05 0 2036.74 -753.26 0 0 -3468.9 664.07 0 1298.35 2155.68 1278.56 -2155.68 659.07 0 9.92 3468.9 -753.26 0zm3860.43 -743.35l-1610.6 0 -307.25 743.35 -822.63 0 1546.15 -3468.9 792.93 0 1551.1 3468.9 -842.46 0 -307.25 -743.35zm-252.75 -609.53l-550.04 -1328.09 -550.09 1328.09 1100.13 0zm4945.68 -2116.02l0 3468.9 -659.07 0 -1729.54 -2106.15 0 2106.15 -792.88 0 0 -3468.9 664.07 0 1724.53 2106.1 0 -2106.1 792.88 0z"/>
    <path class="fil2" d="M3134.43 19083.49c-109.7,0 -208.63,-24.29 -296.7,-72.79 -88.07,-48.54 -157.16,-115.79 -207.28,-201.74 -50.12,-85.99 -75.13,-182.27 -75.13,-288.77 0,-106.55 25.01,-202.82 75.13,-288.77 50.12,-85.99 119.48,-153.24 208.09,-201.78 88.61,-48.49 187.76,-72.79 297.47,-72.79 82.25,0 158.24,13.75 227.83,41.15 69.63,27.45 128.72,67.52 177.22,120.25l-74.37 74.37c-86.49,-87.53 -195.65,-131.29 -327.53,-131.29 -87.57,0 -167.21,20.01 -238.92,60.12 -71.75,40.07 -127.91,94.92 -168.52,164.55 -40.61,69.59 -60.94,147.65 -60.94,234.19 0,86.49 20.33,164.55 60.94,234.14 40.61,69.63 96.77,124.49 168.52,164.6 71.71,40.07 151.35,60.12 238.92,60.12 132.91,0 242.07,-44.3 327.53,-132.91l74.37 74.37c-48.5,52.73 -107.85,93.07 -177.98,121.01 -70.18,27.99 -146.39,41.96 -228.64,41.96zm1117.07 0c-109.7,0 -209.13,-24.56 -298.28,-73.6 -89.1,-49.04 -158.74,-116.28 -208.86,-201.74 -50.12,-85.45 -75.13,-181.45 -75.13,-287.96 0,-106.55 25.02,-202.55 75.13,-288 50.12,-85.45 119.75,-152.7 208.86,-201.74 89.15,-49.04 188.57,-73.6 298.28,-73.6 109.7,0 208.59,24.29 296.7,72.79 88.07,48.54 157.43,115.79 208.05,201.78 50.61,85.95 75.94,182.22 75.94,288.77 0,106.5 -25.33,202.77 -75.94,288.77 -50.61,85.95 -119.98,153.2 -208.05,201.74 -88.11,48.5 -187,72.79 -296.7,72.79zm0 -104.43c87.57,0 166.67,-19.79 237.34,-59.36 70.67,-39.57 126.06,-94.42 166.13,-164.55 40.11,-70.13 60.12,-148.46 60.12,-234.95 0,-86.54 -20.01,-164.82 -60.12,-235 -40.07,-70.13 -95.46,-124.98 -166.13,-164.55 -70.67,-39.57 -149.77,-59.31 -237.34,-59.31 -87.57,0 -166.94,19.74 -238.15,59.31 -71.17,39.57 -127.1,94.42 -167.71,164.55 -40.61,70.18 -60.93,148.46 -60.93,235 0,86.49 20.33,164.82 60.93,234.95 40.61,70.13 96.54,124.98 167.71,164.55 71.21,39.57 150.58,59.36 238.15,59.36zm1769.02 -1012.69l0 1107.61 -96.54 0 -712.03 -898.75 0 898.75 -117.09 0 0 -1107.61 96.54 0 713.6 898.75 0 -898.75 115.52 0zm666.14 1117.12c-82.3,0 -161.13,-13.2 -236.58,-39.57 -75.4,-26.37 -133.68,-61.2 -174.83,-104.43l45.88 -90.19c40.11,40.07 93.34,72.52 159.82,97.31 66.43,24.79 135.03,37.18 205.7,37.18 99.16,0 173.52,-18.21 223.1,-54.58 49.58,-36.42 74.37,-83.61 74.37,-141.61 0,-44.3 -13.43,-79.64 -40.34,-106.05 -26.91,-26.37 -59.85,-46.65 -98.89,-60.89 -39.03,-14.24 -93.39,-29.79 -162.97,-46.69 -83.34,-21.09 -149.82,-41.38 -199.39,-60.89 -49.58,-19.52 -92.03,-49.35 -127.37,-89.42 -35.34,-40.07 -53,-94.42 -53,-162.97 0,-55.89 14.78,-106.82 44.3,-152.7 29.52,-45.88 74.91,-82.52 136.07,-109.97 61.21,-27.4 137.15,-41.15 227.83,-41.15 63.32,0 125.3,8.74 185.96,26.14 60.62,17.4 113.13,41.37 157.43,71.98l-39.57 93.34c-46.42,-30.56 -96,-53.5 -148.73,-68.82 -52.73,-15.28 -104.43,-22.94 -155.09,-22.94 -97.04,0 -170.1,18.75 -219.13,56.16 -49.04,37.45 -73.55,85.72 -73.55,144.81 0,44.3 13.43,79.91 40.34,106.82 26.91,26.86 60.67,47.46 101.27,61.7 40.61,14.24 95.19,29.79 163.74,46.65 81.22,20.06 146.89,39.84 197,59.36 50.12,19.52 92.57,49.04 127.37,88.61 34.84,39.57 52.24,93.07 52.24,160.59 0,55.93 -15.05,106.82 -45.11,152.7 -30.06,45.88 -76.21,82.3 -138.46,109.16 -62.24,26.91 -138.68,40.38 -229.41,40.38zm867.11 -1015.85l-389.27 0 0 -101.27 895.6 0 0 101.27 -389.23 0 0 1006.34 -117.09 0 0 -1006.34zm1449.34 1006.34l-253.16 -356.01c-28.48,3.15 -58.01,4.73 -88.61,4.73l-297.47 0 0 351.28 -117.09 0 0 -1107.61 414.56 0c141.34,0 252.12,33.76 332.31,101.27 80.14,67.52 120.25,160.32 120.25,278.49 0,86.49 -21.9,159.55 -65.67,219.13 -43.76,59.58 -106.28,102.58 -187.49,128.95l270.56 379.76 -128.18 0zm-344.93 -450.93c109.7,0 193.58,-24.29 251.58,-72.79 58.01,-48.54 87.03,-116.6 87.03,-204.12 0,-89.69 -29.03,-158.51 -87.03,-206.51 -58.01,-48 -141.88,-71.98 -251.58,-71.98l-294.31 0 0 555.4 294.31 0zm1178.78 460.44c-143.46,0 -255.28,-41.15 -335.42,-123.45 -80.18,-82.25 -120.25,-202.01 -120.25,-359.17l0 -634.5 117.05 0 0 629.77c0,128.68 29.03,224.68 87.03,287.96 58.05,63.28 141.88,94.96 251.58,94.96 110.78,0 195.16,-31.69 253.16,-94.96 58.05,-63.28 87.03,-159.28 87.03,-287.96l0 -629.77 113.94 0 0 634.5c0,157.16 -39.8,276.91 -119.44,359.17 -79.69,82.3 -191.24,123.45 -334.69,123.45zm1288.03 0c-109.7,0 -208.63,-24.29 -296.7,-72.79 -88.07,-48.54 -157.16,-115.79 -207.28,-201.74 -50.12,-85.99 -75.13,-182.27 -75.13,-288.77 0,-106.55 25.01,-202.82 75.13,-288.77 50.12,-85.99 119.48,-153.24 208.09,-201.78 88.61,-48.49 187.76,-72.79 297.47,-72.79 82.25,0 158.24,13.75 227.83,41.15 69.63,27.45 128.72,67.52 177.22,120.25l-74.37 74.37c-86.49,-87.53 -195.65,-131.29 -327.53,-131.29 -87.57,0 -167.21,20.01 -238.92,60.12 -71.75,40.07 -127.91,94.92 -168.52,164.55 -40.61,69.59 -60.94,147.65 -60.94,234.19 0,86.49 20.33,164.55 60.94,234.14 40.61,69.63 96.77,124.49 168.52,164.6 71.71,40.07 151.35,60.12 238.92,60.12 132.91,0 242.07,-44.3 327.53,-132.91l74.37 74.37c-48.5,52.73 -107.85,93.07 -177.98,121.01 -70.18,27.99 -146.39,41.96 -228.64,41.96zm857.6 -1015.85l-389.28 0 0 -101.27 895.6 0 0 101.27 -389.23 0 0 1006.34 -117.09 0 0 -1006.34zm1161.38 1015.85c-109.7,0 -209.13,-24.56 -298.28,-73.6 -89.1,-49.04 -158.74,-116.28 -208.86,-201.74 -50.12,-85.45 -75.13,-181.45 -75.13,-287.96 0,-106.55 25.01,-202.55 75.13,-288 50.12,-85.45 119.75,-152.7 208.86,-201.74 89.15,-49.04 188.58,-73.6 298.28,-73.6 109.7,0 208.59,24.29 296.7,72.79 88.07,48.54 157.43,115.79 208.05,201.78 50.61,85.95 75.94,182.22 75.94,288.77 0,106.5 -25.33,202.77 -75.94,288.77 -50.61,85.95 -119.98,153.2 -208.05,201.74 -88.11,48.5 -187,72.79 -296.7,72.79zm0 -104.43c87.57,0 166.67,-19.79 237.34,-59.36 70.67,-39.57 126.06,-94.42 166.13,-164.55 40.11,-70.13 60.12,-148.46 60.12,-234.95 0,-86.54 -20.01,-164.82 -60.12,-235 -40.07,-70.13 -95.46,-124.98 -166.13,-164.55 -70.67,-39.57 -149.77,-59.31 -237.34,-59.31 -87.57,0 -166.94,19.74 -238.15,59.31 -71.17,39.57 -127.1,94.42 -167.71,164.55 -40.61,70.18 -60.93,148.46 -60.93,235 0,86.49 20.33,164.82 60.93,234.95 40.61,70.13 96.54,124.98 167.71,164.55 71.21,39.57 150.58,59.36 238.15,59.36zm1599.69 94.92l-253.16 -356.01c-28.48,3.15 -58.01,4.73 -88.61,4.73l-297.47 0 0 351.28 -117.09 0 0 -1107.61 414.56 0c141.34,0 252.12,33.76 332.31,101.27 80.14,67.52 120.25,160.32 120.25,278.49 0,86.49 -21.9,159.55 -65.67,219.13 -43.76,59.58 -106.28,102.58 -187.49,128.95l270.56 379.76 -128.18 0zm-344.92 -450.93c109.7,0 193.58,-24.29 251.58,-72.79 58,-48.54 87.03,-116.6 87.03,-204.12 0,-89.69 -29.03,-158.51 -87.03,-206.51 -58.01,-48 -141.88,-71.98 -251.58,-71.98l-294.31 0 0 555.4 294.31 0zm1427.2 155.04l-617.11 0 -132.91 295.89 -121.83 0 506.32 -1107.61 115.52 0 506.37 1107.61 -123.45 0 -132.91 -295.89zm-42.73 -94.92l-265.83 -594.98 -265.83 594.98 531.65 0zm1689.92 408.2l-153.51 -158.24c-93.88,100.24 -217.28,150.36 -370.25,150.36 -71.71,0 -135.8,-11.9 -192.23,-35.6 -56.43,-23.75 -100.46,-56.97 -132.15,-99.7 -31.64,-42.73 -47.46,-91.49 -47.46,-146.34 0,-66.48 21.09,-126.06 63.32,-178.79 42.19,-52.78 113.89,-108.12 215.17,-166.17 -52.73,-54.85 -89.15,-101.5 -109.16,-140.03 -20.06,-38.49 -30.06,-79.37 -30.06,-122.59 0,-70.72 25.28,-127.64 75.94,-170.91 50.61,-43.27 118.67,-64.86 204.13,-64.86 79.1,0 141.88,19.52 188.26,58.55 46.42,38.99 69.63,92.8 69.63,161.35 0,54.85 -18.48,104.2 -55.39,147.97 -36.91,43.76 -100.73,92.03 -191.46,144.77l303.82 313.29c33.76,-60.12 58.55,-131.29 74.37,-213.59l91.76 28.48c-20.06,99.16 -52.73,184.07 -98.12,254.74l158.24 162.97 -64.86 74.37zm-476.26 -1049.06c-54.85,0 -97.85,13.7 -128.99,41.15 -31.1,27.45 -46.65,63.82 -46.65,109.16 0,32.72 8.43,63.82 25.28,93.39 16.9,29.52 50.12,69.59 99.7,120.25 80.18,-46.42 135.57,-85.99 166.13,-118.67 30.6,-32.72 45.93,-68.55 45.93,-107.58 0,-42.23 -14.24,-75.72 -42.73,-100.51 -28.48,-24.79 -68.06,-37.18 -118.67,-37.18zm-41.15 947.79c122.37,0 221.52,-41.65 297.47,-124.98l-333.88 -343.35c-87.53,49.58 -147.92,94.38 -181.14,134.49 -33.26,40.07 -49.85,84.91 -49.85,134.49 0,60.12 24.52,108.39 73.56,144.77 49.08,36.42 113.67,54.58 193.85,54.58zm1197.8 -1023.73l117.09 0 0 1107.61 -117.09 0 0 -1107.61zm1403.5 0l0 1107.61 -96.54 0 -712.03 -898.75 0 898.75 -117.09 0 0 -1107.61 96.54 0 713.6 898.75 0 -898.75 115.52 0zm1511.08 0l0 1107.61 -112.36 0 0 -886.09 -435.11 745.24 -55.39 0 -435.11 -740.51 0 881.35 -112.36 0 0 -1107.61 96.54 0 480.99 821.23 476.26 -821.23 96.54 0zm844.94 1117.12c-109.7,0 -209.13,-24.56 -298.28,-73.6 -89.1,-49.04 -158.74,-116.28 -208.86,-201.74 -50.12,-85.45 -75.13,-181.45 -75.13,-287.96 0,-106.55 25.01,-202.55 75.13,-288 50.12,-85.45 119.75,-152.7 208.86,-201.74 89.15,-49.04 188.58,-73.6 298.28,-73.6 109.7,0 208.59,24.29 296.7,72.79 88.07,48.54 157.43,115.79 208.05,201.78 50.61,85.95 75.94,182.22 75.94,288.77 0,106.5 -25.33,202.77 -75.94,288.77 -50.61,85.95 -119.98,153.2 -208.05,201.74 -88.11,48.5 -187,72.79 -296.7,72.79zm0 -104.43c87.57,0 166.67,-19.79 237.34,-59.36 70.67,-39.57 126.06,-94.42 166.13,-164.55 40.11,-70.13 60.12,-148.46 60.12,-234.95 0,-86.54 -20.01,-164.82 -60.12,-235 -40.07,-70.13 -95.46,-124.98 -166.13,-164.55 -70.67,-39.57 -149.77,-59.31 -237.34,-59.31 -87.57,0 -166.94,19.74 -238.15,59.31 -71.17,39.57 -127.1,94.42 -167.71,164.55 -40.61,70.18 -60.93,148.46 -60.93,235 0,86.49 20.33,164.82 60.93,234.95 40.61,70.13 96.54,124.98 167.71,164.55 71.21,39.57 150.58,59.36 238.15,59.36zm1541.14 -476.31c72.79,15.82 128.99,47.23 168.52,94.15 39.57,46.96 59.36,107.36 59.36,181.18 0,94.92 -35.07,167.98 -105.24,219.13 -70.13,51.16 -173.79,76.76 -310.9,76.76l-509.52 0 0 -1107.61 477.88 0c123.4,0 219.13,24.79 287.14,74.37 68.06,49.58 102.09,119.75 102.09,210.44 0,61.2 -15.05,113.17 -45.12,155.85 -30.06,42.73 -71.44,74.64 -124.21,95.73zm-580.69 -439.84l0 401.89 352.86 0c89.65,0 158.74,-17.17 207.28,-51.42 48.54,-34.3 72.79,-84.15 72.79,-149.54 0,-65.4 -24.25,-115.25 -72.79,-149.5 -48.54,-34.3 -117.63,-51.43 -207.28,-51.43l-352.86 0zm390.85 914.53c99.16,0 174.02,-16.86 224.68,-50.61 50.61,-33.76 75.94,-86.49 75.94,-158.24 0,-138.19 -100.24,-207.28 -300.62,-207.28l-390.85 0 0 416.14 390.85 0zm685.12 -1011.07l117.09 0 0 1107.61 -117.09 0 0 -1107.61zm477.84 0l117.09 0 0 1006.34 620.26 0 0 101.27 -737.35 0 0 -1107.61zm931.97 0l117.09 0 0 1107.61 -117.09 0 0 -1107.61zm1172.47 811.72l-617.11 0 -132.91 295.89 -121.82 0 506.32 -1107.61 115.52 0 506.37 1107.61 -123.45 0 -132.91 -295.89zm-42.73 -94.92l-265.83 -594.98 -265.83 594.98 531.65 0zm1238.95 390.81l-253.16 -356.01c-28.48,3.15 -58.01,4.73 -88.61,4.73l-297.47 0 0 351.28 -117.09 0 0 -1107.61 414.56 0c141.34,0 252.12,33.76 332.31,101.27 80.14,67.52 120.25,160.32 120.25,278.49 0,86.49 -21.9,159.55 -65.67,219.13 -43.76,59.58 -106.28,102.58 -187.49,128.95l270.56 379.76 -128.18 0zm-344.93 -450.93c109.7,0 193.58,-24.29 251.58,-72.79 58,-48.54 87.03,-116.6 87.03,-204.12 0,-89.69 -29.03,-158.51 -87.03,-206.51 -58.01,-48 -141.88,-71.98 -251.58,-71.98l-294.31 0 0 555.4 294.31 0zm732.58 -656.68l117.09 0 0 1107.61 -117.09 0 0 -1107.61zm1172.47 811.72l-617.11 0 -132.91 295.89 -121.83 0 506.32 -1107.61 115.52 0 506.37 1107.61 -123.45 0 -132.91 -295.89zm-42.73 -94.92l-265.83 -594.98 -265.83 594.98 531.65 0z"/>
   </g>
  </g>
 </g>
</svg>
