<?xml version="1.0" encoding="UTF-8"?>
<!DOCTYPE svg PUBLIC "-//W3C//DTD SVG 1.1//EN" "http://www.w3.org/Graphics/SVG/1.1/DTD/svg11.dtd">
<!-- Creator: CorelDRAW 2021 (64-Bit) -->
<svg xmlns="http://www.w3.org/2000/svg" xml:space="preserve" width="4644.95mm" height="750.551mm" version="1.1" style="shape-rendering:geometricPrecision; text-rendering:geometricPrecision; image-rendering:optimizeQuality; fill-rule:evenodd; clip-rule:evenodd"
viewBox="0 0 1263146.35 204104.55"
 xmlns:xlink="http://www.w3.org/1999/xlink"
 xmlns:xodm="http://www.corel.com/coreldraw/odm/2003">
 <defs>
  <style type="text/css">
   <![CDATA[
    .fil0 {fill:#F7E082}
    .fil1 {fill:#F3BA31}
    .fil2 {fill:#2E4165;fill-rule:nonzero}
   ]]>
  </style>
 </defs>
 <g id="Capa_x0020_1">
  <metadata id="CorelCorpID_0Corel-Layer"/>
  <g id="_1931270376640">
   <g>
    <path class="fil0" d="M-0 203861.55c43380.7,-1865.32 99774.74,2570.54 114529.59,-1645.21 49605.4,-13464.03 56993.05,-82182.5 13524.19,-110035.35 -15080.64,-9662.81 -33435.34,-9899.23 -48319.8,-11230.95 -36573.36,-3271.14 -28199.06,-41169.17 -3073.82,-41340.22l30587.45 -209.61c-1620.68,-5291.16 -15144.27,-23634.17 -19762.29,-29645.18 -2365.03,-3077.3 -5208.82,-6347.26 -6905.99,-9654.62 -62459.9,106.85 -82676.99,68515.3 -49241.65,102490.09 20069.94,20393.98 39261.84,17690.3 64429.73,20642.67 27930.49,3275.81 29934.74,40396.81 366.63,40979.47l-69692.85 1374.3 -26441.19 38274.62z"/>
    <path class="fil1" d="M228093.55 116195.82c52326.56,-12573.13 57129.64,-116071.46 -28752.51,-116195.82l-107028.68 5.25 28080.52 38922.65 78927.7 732.69c32662.38,303.02 39560.79,41366.52 -1.74,41366.52l-48283.03 -0.57 89118.86 122958.77 51567.6 0 -63628.73 -87789.49z"/>
   </g>
   <g>
    <path class="fil2" d="M344359.21 122549.07c-8190.69,0 -16109.44,-1109.32 -23757.58,-3329.33 -7648.14,-2221.34 -13791.15,-5107.74 -18429.06,-8660.52l8140.9 -18058.84c4441.32,3256.61 9720.05,5872.43 15838.83,7846.06 6118.78,1973.6 12236.23,2960.42 18355.01,2960.42 6809.43,0 11841.78,-1012.38 15098.39,-3034.47 3256.61,-2023.45 4884.26,-4711.95 4884.26,-8068.18 0,-2466.36 -961.23,-4514.04 -2886.4,-6143.04 -1923.81,-1627.64 -4391.53,-2934.86 -7400.43,-3921.67 -3010.26,-986.81 -7081.36,-2073.24 -12212,-3256.61 -7894.52,-1875.35 -14359.29,-3750.7 -19391.64,-5626.05 -5032.35,-1874.02 -9349.83,-4884.26 -12952.43,-9029.41 -3601.27,-4143.82 -5402.57,-9670.26 -5402.57,-16577.96 0,-6020.5 1627.64,-11472.89 4884.26,-16357.15 3256.61,-4884.26 8166.46,-8757.47 14729.51,-11619.63 6561.72,-2862.17 14580.08,-4293.25 24053.78,-4293.25 6611.51,0 13074.94,790.26 19391.64,2368.11 6315.34,1579.15 11841.75,3848.95 16577.94,6809.4l-7400.43 18206.94c-9573.31,-5426.8 -19145.26,-8140.9 -28717.24,-8140.9 -6711.15,0 -11669.45,1085.09 -14876.25,3256.64 -3208.15,2171.52 -4811.57,5032.33 -4811.57,8585.14 0,3552.81 1851.12,6192.83 5550.67,7920.08 3700.88,1725.92 9351.16,3428.94 16949.49,5106.4 7894.52,1875.35 14357.96,3749.37 19391.64,5624.72 5032.35,1875.35 9349.83,4835.77 12951.1,8881.31 3602.6,4046.9 5403.9,9523.49 5403.9,16431.2 0,5920.89 -1653.2,11323.46 -4959.64,16209.08 -3305.1,4884.26 -8264.74,8757.47 -14876.25,11619.63 -6611.53,2862.17 -14654.12,4291.89 -24127.82,4291.89zm128633.17 -23979.73l-48108.88 0 -9177.5 22204.01 -24572.07 0 46183.71 -103616.84 23684.86 0 46331.81 103616.84 -25164.43 0 -9177.5 -22204.01zm-7549.86 -18206.91l-16429.86 -39670.46 -16431.2 39670.46 32861.06 0zm147728.59 -63205.92l0 103616.84 -19686.45 0 -51661.67 -62911.08 0 62911.08 -23683.53 0 0 -103616.84 19835.88 0 51512.24 62909.75 0 -62909.75 23683.53 0zm132482.15 103616.84l-19984.01 -28865.34 -1184.71 0 -20871.18 0 0 28865.34 -23979.73 0 0 -103616.84 44850.91 0c9177.5,0 17147.4,1529.36 23907.01,4588.09 6759.61,3058.72 11965.62,7401.79 15616.71,13026.48 3651.06,5624.72 5476.62,12286.05 5476.62,19982.65 0,7697.96 -1851.12,14333.73 -5550.67,19909.96 -3700.88,5574.9 -8955.38,9843.89 -15764.78,12804.34l23239.26 33305.33 -25755.44 0zm-444.27 -66019.62c0,-5821.25 -1875.35,-10286.83 -5624.72,-13395.37 -3750.7,-3108.52 -9227.32,-4663.47 -16431.2,-4663.47l-19539.71 0 0 36119.01 19539.71 0c7203.87,0 12680.5,-1579.15 16431.2,-4737.52 3749.37,-3158.34 5624.72,-7598.32 5624.72,-13322.65zm93404.04 67795.34c-10756.68,0 -20452.51,-2318.26 -29087.46,-6956.16 -8634.96,-4637.88 -15394.56,-11028.62 -20278.82,-19169.49 -4885.61,-8140.9 -7327.74,-17294.17 -7327.74,-27458.49 0,-10164.32 2442.13,-19317.59 7327.74,-27458.46 4884.26,-8142.23 11643.86,-14531.62 20278.82,-19169.49 8634.96,-4637.9 18330.78,-6957.52 29087.46,-6957.52 10756.66,0 20426.92,2319.62 29012.05,6957.52 8586.5,4637.88 15346.1,11027.26 20280.18,19169.49 4934.07,8140.87 7400.43,17294.14 7400.43,27458.46 0,10164.32 -2466.36,19317.59 -7400.43,27458.49 -4934.07,8140.87 -11693.68,14531.62 -20280.18,19169.49 -8585.14,4637.9 -18255.4,6956.16 -29012.05,6956.16zm0 -20426.92c6117.42,0 11643.86,-1405.49 16577.94,-4219.2 4934.07,-2812.35 8808.62,-6734.04 11620.96,-11767.73 2812.37,-5032.35 4217.87,-10756.68 4217.87,-17170.3 0,-6414.95 -1405.49,-12137.95 -4217.87,-17171.63 -2812.35,-5032.35 -6686.89,-8955.36 -11620.96,-11767.73 -4934.07,-2812.35 -10460.52,-4217.84 -16577.94,-4217.84 -6118.81,0 -11645.22,1405.49 -16579.29,4217.84 -4934.07,2812.37 -8807.28,6735.38 -11619.63,11767.73 -2812.35,5033.69 -4219.2,10756.68 -4219.2,17171.63 0,6413.62 1406.85,12137.95 4219.2,17170.3 2812.35,5033.69 6685.56,8955.38 11619.63,11767.73 4934.07,2813.71 10460.49,4219.2 16579.29,4219.2zm169042.71 18651.2l-148.1 -62170.64 -30492.95 51217.4 -10805.14 0 -30344.86 -49884.6 0 60837.84 -22500.16 0 0 -103616.84 19835.88 0 38781.95 64390.62 38190.89 -64390.62 19686.48 0 296.17 103616.84 -22500.16 0zm115311.85 -22204.01l-48108.88 0 -9177.5 22204.01 -24572.07 0 46183.71 -103616.84 23684.86 0 46331.81 103616.84 -25164.43 0 -9177.5 -22204.01zm-7549.89 -18206.91l-16429.84 -39670.46 -16431.2 39670.46 32861.03 0zm147728.62 -63205.92l0 103616.84 -19686.45 0 -51661.67 -62911.08 0 62911.08 -23683.53 0 0 -103616.84 19835.88 0 51512.24 62909.75 0 -62909.75 23683.53 0z"/>
    <path class="fil2" d="M395798.75 188350.59c-3276.82,0 -6231.88,-725.64 -8862.49,-2174.24 -2630.61,-1449.93 -4694.44,-3458.56 -6191.47,-6025.89 -1497.06,-2568.69 -2244.24,-5444.31 -2244.24,-8625.55 0,-3182.56 747.18,-6058.19 2244.24,-8625.52 1497.03,-2568.69 3568.94,-4577.32 6215.7,-6027.24 2646.76,-1448.6 5608.57,-2174.21 8885.36,-2174.21 2456.95,0 4726.75,410.6 6805.4,1229.14 2079.99,819.87 3844.93,2016.71 5293.52,3591.83l-2221.34 2221.34c-2583.51,-2614.46 -5844.15,-3921.67 -9783.33,-3921.67 -2615.82,0 -4994.66,597.72 -7136.57,1795.92 -2143.27,1196.83 -3820.7,2835.24 -5033.69,4915.23 -1212.99,2078.63 -1820.17,4410.37 -1820.17,6995.19 0,2583.51 607.19,4915.23 1820.17,6993.85 1212.99,2079.99 2890.42,3718.4 5033.69,4916.59 2141.91,1196.83 4520.75,1795.92 7136.57,1795.92 3970.13,0 7230.8,-1323.39 9783.33,-3970.16l2221.34 2221.34c-1448.6,1575.16 -3221.62,2780.07 -5316.42,3614.73 -2096.14,836.05 -4372.68,1253.4 -6829.6,1253.4zm33367.22 0c-3276.82,0 -6246.67,-733.72 -8909.59,-2198.47 -2661.58,-1464.75 -4741.57,-3473.38 -6238.6,-6025.89 -1497.06,-2552.54 -2244.24,-5420.09 -2244.24,-8601.32 0,-3182.56 747.18,-6050.12 2244.24,-8602.65 1497.03,-2552.51 3577.01,-4561.14 6238.6,-6025.89 2662.92,-1464.75 5632.77,-2198.44 8909.59,-2198.44 3276.82,0 6230.52,725.62 8862.49,2174.21 2630.61,1449.93 4702.52,3458.56 6214.37,6027.24 1511.85,2567.33 2268.47,5442.96 2268.47,8625.52 0,3181.23 -756.62,6056.86 -2268.47,8625.55 -1511.85,2567.33 -3583.76,4575.96 -6214.37,6025.89 -2631.97,1448.6 -5585.67,2174.24 -8862.49,2174.24zm0 -3119.31c2615.82,0 4978.51,-591.01 7089.44,-1773.05 2110.96,-1182.01 3765.52,-2820.42 4962.36,-4915.2 1198.17,-2094.81 1795.92,-4434.6 1795.92,-7018.11 0,-2584.81 -597.75,-4923.28 -1795.92,-7019.42 -1196.83,-2094.81 -2851.4,-3733.22 -4962.36,-4915.23 -2110.93,-1182.04 -4473.63,-1771.69 -7089.44,-1771.69 -2615.79,0 -4986.56,589.65 -7113.67,1771.69 -2125.75,1182.01 -3796.47,2820.42 -5009.46,4915.23 -1212.99,2096.14 -1820.15,4434.6 -1820.15,7019.42 0,2583.51 607.16,4923.31 1820.15,7018.11 1212.99,2094.78 2883.7,3733.19 5009.46,4915.2 2127.11,1182.04 4497.88,1773.05 7113.67,1773.05zm52841.02 -30249.3l0 33084.54 -2883.73 0 -21268.32 -26845.92 0 26845.92 -3497.61 0 0 -33084.54 2883.7 0 21315.45 26845.92 0 -26845.92 3450.51 0zm19897.83 33368.61c-2458.31,0 -4812.93,-394.48 -7066.57,-1182.04 -2252.31,-787.56 -3993.03,-1828.22 -5222.17,-3119.28l1370.49 -2693.89c1198.19,1196.83 2788.12,2166.14 4773.87,2906.57 1984.4,740.46 4033.41,1110.68 6144.37,1110.68 2961.78,0 5183.12,-543.88 6664.02,-1630.33 1480.87,-1087.79 2221.34,-2497.33 2221.34,-4229.97 0,-1323.39 -401.19,-2378.85 -1204.91,-3167.77 -803.72,-787.56 -1787.84,-1393.39 -2953.7,-1818.81 -1165.89,-425.42 -2789.48,-889.87 -4868.13,-1394.72 -2489.23,-630.06 -4474.99,-1235.86 -5955.89,-1818.81 -1480.87,-582.93 -2749.07,-1474.16 -3804.55,-2670.99 -1055.48,-1196.83 -1583.21,-2820.42 -1583.21,-4868.1 0,-1669.36 441.58,-3190.64 1323.39,-4561.14 881.79,-1370.52 2237.49,-2465.02 4064.36,-3284.9 1828.25,-818.54 4096.72,-1229.14 6805.4,-1229.14 1891.5,0 3742.62,261.17 5554.7,780.82 1810.74,519.68 3379.12,1235.88 4702.52,2149.98l-1182.04 2788.14c-1386.65,-912.79 -2867.55,-1598.03 -4442.68,-2055.76 -1575.13,-456.4 -3119.28,-685.26 -4632.49,-685.26 -2898.52,0 -5080.81,560.06 -6545.56,1677.46 -1464.72,1118.73 -2197.11,2560.58 -2197.11,4325.55 0,1323.37 401.19,2386.92 1204.91,3190.64 803.72,802.39 1812.07,1417.62 3025.06,1843.04 1212.99,425.42 2843.32,889.9 4891,1393.39 2425.97,599.08 4387.48,1190.09 5884.53,1773.02 1497.06,582.96 2765.25,1464.75 3804.55,2646.76 1040.69,1182.04 1560.34,2780.07 1560.34,4796.77 0,1670.72 -449.65,3190.64 -1347.62,4561.14 -897.94,1370.49 -2276.52,2458.28 -4135.71,3260.67 -1859.2,803.72 -4142.49,1206.27 -6852.5,1206.27zm25900.82 -30343.52l-11627.71 0 0 -3025.08 26751.69 0 0 3025.08 -11626.38 0 0 30059.46 -3497.61 0 0 -30059.46zm43291.93 30059.46l-7561.99 -10634.18c-850.85,94.25 -1732.64,141.35 -2646.76,141.35l-8885.36 0 0 10492.82 -3497.61 0 0 -33084.54 12382.97 0c4221.89,0 7531.02,1008.35 9926.04,3025.08 2393.64,2016.71 3591.83,4788.67 3591.83,8318.58 0,2583.48 -654.29,4765.77 -1961.53,6545.53 -1307.21,1779.76 -3174.49,3064.11 -5600.46,3851.67l8081.64 11343.67 -3828.78 0zm-10302.98 -13469.42c3276.82,0 5782.2,-725.64 7514.86,-2174.21 1732.64,-1449.93 2599.64,-3482.79 2599.64,-6097.24 0,-2679.07 -867,-4734.82 -2599.64,-6168.6 -1732.66,-1433.78 -4238.04,-2149.98 -7514.86,-2149.98l-8791.13 0 0 16590.04 8791.13 0zm35210.27 13753.49c-4285.17,0 -7625.24,-1229.17 -10018.91,-3687.45 -2395.03,-2456.92 -3591.83,-6033.96 -3591.83,-10728.4l0 -18952.76 3496.25 0 0 18811.4c0,3843.6 867,6711.15 2599.64,8601.32 1734,1890.14 4238.04,2836.58 7514.86,2836.58 3309.13,0 5829.35,-946.43 7561.99,-2836.58 1734,-1890.17 2599.64,-4757.72 2599.64,-8601.32l0 -18811.4 3403.38 0 0 18952.76c0,4694.44 -1188.76,8271.48 -3567.63,10728.4 -2380.18,2458.28 -5712.2,3687.45 -9997.37,3687.45zm38473.62 0c-3276.79,0 -6231.85,-725.64 -8862.46,-2174.24 -2630.61,-1449.93 -4694.44,-3458.56 -6191.5,-6025.89 -1497.06,-2568.69 -2244.21,-5444.31 -2244.21,-8625.55 0,-3182.56 747.15,-6058.19 2244.21,-8625.52 1497.06,-2568.69 3568.96,-4577.32 6215.73,-6027.24 2646.76,-1448.6 5608.54,-2174.21 8885.36,-2174.21 2456.95,0 4726.75,410.6 6805.37,1229.14 2079.99,819.87 3844.96,2016.71 5293.52,3591.83l-2221.34 2221.34c-2583.48,-2614.46 -5844.15,-3921.67 -9783.3,-3921.67 -2615.82,0 -4994.66,597.72 -7136.57,1795.92 -2143.27,1196.83 -3820.73,2835.24 -5033.71,4915.23 -1212.99,2078.63 -1820.15,4410.37 -1820.15,6995.19 0,2583.51 607.16,4915.23 1820.15,6993.85 1212.99,2079.99 2890.45,3718.4 5033.71,4916.59 2141.91,1196.83 4520.75,1795.92 7136.57,1795.92 3970.13,0 7230.8,-1323.39 9783.3,-3970.16l2221.34 2221.34c-1448.57,1575.16 -3221.62,2780.07 -5316.39,3614.73 -2096.14,836.05 -4372.68,1253.4 -6829.63,1253.4zm25616.78 -30343.52l-11627.71 0 0 -3025.08 26751.69 0 0 3025.08 -11626.38 0 0 30059.46 -3497.61 0 0 -30059.46zm34690.62 30343.52c-3276.79,0 -6246.67,-733.72 -8909.59,-2198.47 -2661.56,-1464.75 -4741.54,-3473.38 -6238.6,-6025.89 -1497.06,-2552.54 -2244.24,-5420.09 -2244.24,-8601.32 0,-3182.56 747.18,-6050.12 2244.24,-8602.65 1497.06,-2552.51 3577.04,-4561.14 6238.6,-6025.89 2662.92,-1464.75 5632.8,-2198.44 8909.59,-2198.44 3276.82,0 6230.55,725.62 8862.49,2174.21 2630.61,1449.93 4702.52,3458.56 6214.37,6027.24 1511.88,2567.33 2268.47,5442.96 2268.47,8625.52 0,3181.23 -756.59,6056.86 -2268.47,8625.55 -1511.85,2567.33 -3583.76,4575.96 -6214.37,6025.89 -2631.94,1448.6 -5585.67,2174.24 -8862.49,2174.24zm0 -3119.31c2615.82,0 4978.51,-591.01 7089.47,-1773.05 2110.93,-1182.01 3765.49,-2820.42 4962.33,-4915.2 1198.17,-2094.81 1795.92,-4434.6 1795.92,-7018.11 0,-2584.81 -597.75,-4923.28 -1795.92,-7019.42 -1196.83,-2094.81 -2851.4,-3733.22 -4962.33,-4915.23 -2110.96,-1182.04 -4473.65,-1771.69 -7089.47,-1771.69 -2615.79,0 -4986.56,589.65 -7113.67,1771.69 -2125.75,1182.01 -3796.47,2820.42 -5009.46,4915.23 -1212.99,2096.14 -1820.15,4434.6 -1820.15,7019.42 0,2583.51 607.16,4923.31 1820.15,7018.11 1212.99,2094.78 2883.7,3733.19 5009.46,4915.2 2127.11,1182.04 4497.88,1773.05 7113.67,1773.05zm47783.07 2835.24l-7561.96 -10634.18c-850.85,94.25 -1732.66,141.35 -2646.76,141.35l-8885.39 0 0 10492.82 -3497.61 0 0 -33084.54 12382.99 0c4221.89,0 7531.02,1008.35 9926.02,3025.08 2393.67,2016.71 3591.83,4788.67 3591.83,8318.58 0,2583.48 -654.29,4765.77 -1961.5,6545.53 -1307.24,1779.76 -3174.49,3064.11 -5600.46,3851.67l8081.64 11343.67 -3828.8 0zm-10302.98 -13469.42c3276.82,0 5782.23,-725.64 7514.86,-2174.21 1732.64,-1449.93 2599.64,-3482.79 2599.64,-6097.24 0,-2679.07 -867,-4734.82 -2599.64,-6168.6 -1732.64,-1433.78 -4238.04,-2149.98 -7514.86,-2149.98l-8791.13 0 0 16590.04 8791.13 0zm42630.9 4631.16l-18433.08 0 -3970.16 8838.26 -3638.96 0 15123.98 -33084.54 3450.48 0 15125.31 33084.54 -3687.42 0 -3970.16 -8838.26zm-1276.27 -2835.24l-7940.29 -17772.08 -7940.29 17772.08 15880.57 0zm50478.29 12193.15l-4585.37 -4726.75c-2804.3,2994.11 -6490.36,4491.17 -11059.6,4491.17 -2141.91,0 -4056.31,-355.43 -5741.82,-1063.56 -1685.54,-709.49 -3000.83,-1701.69 -3947.26,-2977.96 -945.1,-1276.27 -1417.62,-2732.91 -1417.62,-4371.32 0,-1985.76 630.06,-3765.52 1891.5,-5340.65 1260.11,-1576.46 3402.02,-3229.69 6427.08,-4963.69 -1575.13,-1638.41 -2662.92,-3031.77 -3260.67,-4182.84 -599.08,-1149.71 -897.94,-2370.77 -897.94,-3661.86 0,-2112.29 755.26,-3812.62 2268.44,-5105.04 1511.88,-1292.42 3544.73,-1937.27 6097.27,-1937.27 2362.69,0 4238.04,582.93 5623.33,1748.79 1386.68,1164.53 2079.99,2771.96 2079.99,4819.64 0,1638.41 -551.96,3112.57 -1654.56,4419.81 -1102.58,1307.21 -3008.9,2749.07 -5718.92,4324.2l9075.17 9357.91c1008.35,-1795.92 1748.82,-3921.67 2221.34,-6379.95l2741.02 850.85c-599.11,2961.78 -1575.16,5498.13 -2930.83,7609.09l4726.75 4868.1 -1937.3 2221.34zm-14225.98 -31335.72c-1638.41,0 -2922.75,409.27 -3853.03,1229.14 -928.92,819.87 -1393.39,1906.32 -1393.39,3260.67 0,977.38 251.76,1906.32 755.26,2789.48 504.86,881.79 1497.06,2078.63 2977.96,3591.83 2395,-1386.65 4049.56,-2568.69 4962.33,-3544.73 914.13,-977.38 1371.85,-2047.65 1371.85,-3213.54 0,-1261.45 -425.42,-2261.72 -1276.27,-3002.16 -850.85,-740.46 -2032.86,-1110.68 -3544.71,-1110.68zm-1229.17 28310.67c3655.11,0 6616.92,-1243.96 8885.39,-3733.22l-9973.14 -10255.85c-2614.46,1480.9 -4418.45,2819.09 -5410.65,4017.26 -993.56,1196.83 -1488.98,2536.38 -1488.98,4017.26 0,1795.94 732.36,3237.8 2197.11,4324.22 1466.08,1087.79 3395.28,1630.33 5790.28,1630.33zm35778.4 -30579.13l3497.61 0 0 33084.54 -3497.61 0 0 -33084.54zm41922.77 0l0 33084.54 -2883.7 0 -21268.32 -26845.92 0 26845.92 -3497.61 0 0 -33084.54 2883.7 0 21315.45 26845.92 0 -26845.92 3450.48 0zm45136.31 0l0 33084.54 -3356.25 0 0 -26467.62 -12996.84 22260.52 -1654.56 0 -12996.87 -22119.17 0 26326.27 -3356.25 0 0 -33084.54 2883.7 0 14367.36 24530.35 14226.01 -24530.35 2883.7 0zm25238.48 33368.61c-3276.82,0 -6246.67,-733.72 -8909.59,-2198.47 -2661.58,-1464.75 -4741.57,-3473.38 -6238.62,-6025.89 -1497.03,-2552.54 -2244.21,-5420.09 -2244.21,-8601.32 0,-3182.56 747.18,-6050.12 2244.21,-8602.65 1497.06,-2552.51 3577.04,-4561.14 6238.62,-6025.89 2662.92,-1464.75 5632.77,-2198.44 8909.59,-2198.44 3276.82,0 6230.52,725.62 8862.49,2174.21 2630.58,1449.93 4702.49,3458.56 6214.37,6027.24 1511.85,2567.33 2268.44,5442.96 2268.44,8625.52 0,3181.23 -756.59,6056.86 -2268.44,8625.55 -1511.88,2567.33 -3583.78,4575.96 -6214.37,6025.89 -2631.97,1448.6 -5585.67,2174.24 -8862.49,2174.24zm0 -3119.31c2615.79,0 4978.48,-591.01 7089.44,-1773.05 2110.96,-1182.01 3765.52,-2820.42 4962.33,-4915.2 1198.19,-2094.81 1795.94,-4434.6 1795.94,-7018.11 0,-2584.81 -597.75,-4923.28 -1795.94,-7019.42 -1196.81,-2094.81 -2851.37,-3733.22 -4962.33,-4915.23 -2110.96,-1182.04 -4473.65,-1771.69 -7089.44,-1771.69 -2615.79,0 -4986.59,589.65 -7113.67,1771.69 -2125.75,1182.01 -3796.47,2820.42 -5009.46,4915.23 -1212.99,2096.14 -1820.17,4434.6 -1820.17,7019.42 0,2583.51 607.19,4923.31 1820.17,7018.11 1212.99,2094.78 2883.7,3733.19 5009.46,4915.2 2127.09,1182.04 4497.88,1773.05 7113.67,1773.05zm46034.26 -14227.37c2174.24,472.55 3853.03,1410.9 5033.71,2812.37 1182.01,1402.8 1773.02,3206.79 1773.02,5411.98 0,2835.24 -1047.4,5017.53 -3143.54,6545.56 -2094.78,1528 -5191.19,2292.7 -9286.55,2292.7l-15219.54 0 0 -33084.54 14274.47 0c3686.09,0 6545.56,740.46 8577.06,2221.34 2032.89,1480.9 3049.31,3577.04 3049.31,6285.72 0,1828.25 -449.65,3380.48 -1347.62,4655.42 -897.94,1276.24 -2133.83,2229.42 -3710.32,2859.45zm-17345.29 -13138.22l0 12004.67 10539.92 0c2677.74,0 4741.54,-512.91 6191.5,-1536.08 1449.93,-1024.51 2174.21,-2513.48 2174.21,-4466.91 0,-1953.45 -724.28,-3442.4 -2174.21,-4465.58 -1449.96,-1024.51 -3513.76,-1536.11 -6191.5,-1536.11l-10539.92 0zm11674.83 27317.13c2961.78,0 5197.94,-503.52 6711.15,-1511.88 1511.85,-1008.35 2268.44,-2583.48 2268.44,-4726.75 0,-4127.64 -2994.08,-6191.47 -8979.59,-6191.47l-11674.83 0 0 12430.09 11674.83 0zm20464.61 -30200.84l3497.61 0 0 33084.54 -3497.61 0 0 -33084.54zm14273.11 0l3497.61 0 0 30059.48 18527.34 0 0 3025.06 -22024.94 0 0 -33084.54zm27838.12 0l3497.61 0 0 33084.54 -3497.61 0 0 -33084.54zm35021.81 24246.28l-18433.08 0 -3970.16 8838.26 -3638.96 0 15123.98 -33084.54 3450.48 0 15125.31 33084.54 -3687.42 0 -3970.16 -8838.26zm-1276.27 -2835.24l-7940.29 -17772.08 -7940.29 17772.08 15880.57 0zm37007.54 11673.5l-7561.96 -10634.18c-850.85,94.25 -1732.66,141.35 -2646.76,141.35l-8885.39 0 0 10492.82 -3497.58 0 0 -33084.54 12382.97 0c4221.89,0 7531.02,1008.35 9926.02,3025.08 2393.67,2016.71 3591.83,4788.67 3591.83,8318.58 0,2583.48 -654.29,4765.77 -1961.5,6545.53 -1307.21,1779.76 -3174.49,3064.11 -5600.46,3851.67l8081.64 11343.67 -3828.8 0zm-10302.98 -13469.42c3276.82,0 5782.23,-725.64 7514.86,-2174.21 1732.66,-1449.93 2599.64,-3482.79 2599.64,-6097.24 0,-2679.07 -866.97,-4734.82 -2599.64,-6168.6 -1732.64,-1433.78 -4238.04,-2149.98 -7514.86,-2149.98l-8791.13 0 0 16590.04 8791.13 0zm21882.23 -19615.12l3497.61 0 0 33084.54 -3497.61 0 0 -33084.54zm35021.81 24246.28l-18433.11 0 -3970.13 8838.26 -3638.96 0 15123.96 -33084.54 3450.51 0 15125.31 33084.54 -3687.45 0 -3970.13 -8838.26zm-1276.27 -2835.24l-7940.29 -17772.08 -7940.29 17772.08 15880.57 0z"/>
   </g>
  </g>
 </g>
</svg>
